<svg xmlns="http://www.w3.org/2000/svg" viewBox="0 0 82.25 90"><title>Pointer</title><g id="Calque_2" data-name="Calque 2"><g id="Calque_1-2" data-name="Calque 1"><polygon points="23.88 51.63 2.38 8.88 3.88 4.78 9.75 2.63 17.5 9 22.75 19.75 30.13 14 33.63 14.88 36.25 15.38 44 10.25 48.13 11 51 14.88 56 11.13 60.63 10.88 64.25 13.63 74.13 30.88 78 45.63 79.63 70.63 48.5 87.38 2.38 56.13 2.38 52.25 7.13 46.38 11.13 46.88 22 52.5 23.88 51.63" style="fill:#fff"/><path d="M73.54,24.84,67.27,12.91a9.13,9.13,0,0,0-15.72-.74A9.11,9.11,0,0,0,36,13.35,9.33,9.33,0,0,0,33.35,12a9.18,9.18,0,0,0-7,.64,9,9,0,0,0-3.34,3L17.39,4.88A9.12,9.12,0,1,0,1.24,13.37l19.1,36.34-6.12-4.12A9.11,9.11,0,0,0,1.56,48.06,9.12,9.12,0,0,0,4,60.72L46.88,89.59a2.35,2.35,0,0,0,1.33.41,2.44,2.44,0,0,0,1.12-.28L81,73.09a2.35,2.35,0,0,0,1.27-2.15C82.23,69.69,81.64,40.26,73.54,24.84Zm-25.17,60L6.69,56.77a4.36,4.36,0,0,1,1.6-7.88,4.78,4.78,0,0,1,.84-.08,4.36,4.36,0,0,1,2.42.74l7.69,5.18a8.09,8.09,0,0,0,4.15,1.63,3.18,3.18,0,0,0,2.18-.81c2.19-2,.45-5.29-.13-6.38l-20-38A4.35,4.35,0,0,1,7.29,5.27a4.43,4.43,0,0,1,2-.49A4.34,4.34,0,0,1,13.16,7.1L29.52,38.22a2.44,2.44,0,0,0,3.22,1,2.4,2.4,0,0,0,1-3.23l-7-13.24a4.35,4.35,0,0,1,7.7-4L43,34.93a2.44,2.44,0,0,0,3.23,1,2.41,2.41,0,0,0,1.17-1.41,2.36,2.36,0,0,0-.17-1.82l-7-13.23a4.36,4.36,0,0,1,1.82-5.87,4.47,4.47,0,0,1,2-.5A4.34,4.34,0,0,1,48,15.44l8.52,16.21a2.38,2.38,0,1,0,4.22-2.22L55.35,19.18a4.34,4.34,0,0,1,3.84-6.37,4.35,4.35,0,0,1,3.86,2.32l6.26,11.93C76,39.7,77.23,64,77.44,69.56Z"/></g></g></svg>